<?xml version="1.0" encoding="UTF-8"?>
<svg id="Layer_1" xmlns="http://www.w3.org/2000/svg" version="1.1" viewBox="0 0 425.2 425.2">
  <!-- Generator: Adobe Illustrator 29.2.0, SVG Export Plug-In . SVG Version: 2.1.0 Build 108)  -->
  <defs>
    <style>
      .st0 {
        fill: #125671;
      }

      .st1 {
        fill: none;
        stroke: #2a5d78;
        stroke-miterlimit: 10;
        stroke-width: 7.92px;
      }
    </style>
  </defs>
  <rect class="st0" width="425.2" height="425.2"/>
  <path class="st1" d="M84.85,309.45c-16.06,18.91-22.36,42.28-18.83,62.46,20.49.22,42.54-9.78,58.6-28.69,16.06-18.91,22.36-42.28,18.83-62.46-20.49-.22-42.54,9.78-58.6,28.69Z"/>
  <path class="st1" d="M205.87,334.58c14.9-8.82,36.31-15.34,60.47-17.39,27.77-2.35,52.9,1.75,69.3,9.97-8.14-16.51-12.11-41.77-9.6-69.65,2.14-23.74,8.55-44.81,17.17-59.68-9.46-9.13-19.51-13.44-28.57-11.04-21.27,5.64-29.02,46.04-17.3,90.24,1.61,6.07,3.52,11.87,5.65,17.39-5.69-2.24-11.68-4.26-17.96-5.96-44.5-12.05-85.23-4.6-90.98,16.64-2.52,9.31,2.09,19.71,11.81,29.48Z"/>
  <path class="st1" d="M285.04,288.45c6.28,1.7,12.26,3.73,17.96,5.96-2.12-5.52-4.04-11.32-5.65-17.39-6.14-23.15-6.93-45.25-3.24-61.86-11.62-4.87-22.22-5.23-29.8.04-7.93,5.52-11.23,16.28-10.29,29.69-13.75-1.19-24.82,1.99-30.47,10.01-5.3,7.52-4.99,18.09-.2,29.71,16.68-3.41,38.67-2.41,61.69,3.83Z"/>
  <path class="st1" d="M373.45,175.4c-21.92-1.98-43.14,34.79-47.41,82.11-2.51,27.89,1.46,53.15,9.6,69.65-16.41-8.22-41.53-12.32-69.3-9.97-47.17,4-83.9,25.02-82.04,46.95,1.86,21.93,41.6,36.46,88.77,32.46,32.43-2.75,57.74-13.99,73.59-24.65,14.14-9.51,26.09-23.65,33.65-33.9,11.38-15.42,22.15-40.69,25.1-73.39,4.27-47.32-10.04-87.29-31.96-89.27Z"/>
  <path class="st1" d="M219.33,90.62c-14.9,8.82-36.31,15.34-60.47,17.39-27.77,2.35-52.9-1.75-69.3-9.97,8.14,16.51,12.11,41.77,9.6,69.65-2.14,23.74-8.55,44.81-17.17,59.68,9.46,9.13,19.51,13.44,28.57,11.04,21.27-5.64,29.02-46.04,17.3-90.24-1.61-6.07-3.52-11.87-5.65-17.39,5.69,2.24,11.68,4.26,17.96,5.96,44.5,12.05,85.23,4.6,90.98-16.64,2.52-9.31-2.09-19.71-11.81-29.48Z"/>
  <path class="st1" d="M140.16,136.74c-6.28-1.7-12.26-3.73-17.96-5.96,2.12,5.52,4.04,11.32,5.65,17.39,6.14,23.15,6.93,45.25,3.24,61.86,11.62,4.87,22.22,5.23,29.8-.04,7.93-5.52,11.23-16.28,10.29-29.69,13.75,1.19,24.82-1.99,30.47-10.01,5.3-7.52,4.99-18.09.2-29.71-16.68,3.41-38.67,2.41-61.69-3.83Z"/>
  <path class="st1" d="M51.74,249.8c21.92,1.98,43.14-34.79,47.41-82.11,2.51-27.89-1.46-53.15-9.6-69.65,16.41,8.22,41.53,12.32,69.3,9.97,47.17-4,83.9-25.02,82.04-46.95-1.86-21.93-41.6-36.46-88.77-32.46-32.43,2.75-57.74,13.99-73.59,24.65-14.14,9.51-26.09,23.65-33.65,33.9-11.38,15.42-22.15,40.69-25.1,73.39-4.27,47.32,10.04,87.29,31.96,89.27Z"/>
  <path class="st1" d="M340.35,115.74c16.06-18.91,22.36-42.28,18.83-62.46-20.49-.22-42.54,9.78-58.6,28.69-16.06,18.91-22.36,42.28-18.83,62.46,20.49.22,42.54-9.78,58.6-28.69Z"/>
</svg>
