<?xml version="1.0" encoding="UTF-8"?>
<svg id="Layer_1" xmlns="http://www.w3.org/2000/svg" version="1.1" viewBox="0 0 841.89 595.28">
  <!-- Generator: Adobe Illustrator 29.2.0, SVG Export Plug-In . SVG Version: 2.1.0 Build 108)  -->
  <defs>
    <style>
      .st0 {
        fill: #231f20;
      }

      .st1 {
        fill: #fff;
      }
    </style>
  </defs>
  <rect class="st1" width="841.89" height="595.28"/>
  <g>
    <path class="st0" d="M504.51,445.6c-2.95,0-5.66-.49-8.16-1.48-2.5-.99-4.66-2.38-6.48-4.16-1.82-1.79-3.25-3.89-4.27-6.32-1.03-2.42-1.54-5.07-1.54-7.93s.51-5.51,1.54-7.94c1.02-2.42,2.46-4.53,4.3-6.32,1.84-1.79,4.01-3.17,6.51-4.16,2.49-.99,5.21-1.48,8.16-1.48s5.5.47,7.99,1.42c2.49.95,4.6,2.38,6.31,4.28l-2.62,2.63c-1.6-1.64-3.37-2.82-5.31-3.55-1.94-.73-4.03-1.09-6.26-1.09-2.35,0-4.53.4-6.54,1.2-2.01.8-3.76,1.94-5.25,3.41-1.49,1.47-2.65,3.18-3.49,5.14s-1.26,4.11-1.26,6.46.42,4.5,1.26,6.45,2,3.67,3.49,5.14c1.49,1.47,3.24,2.61,5.25,3.41,2.01.8,4.19,1.2,6.54,1.2s4.32-.37,6.26-1.12c1.93-.75,3.7-1.94,5.31-3.58l2.62,2.62c-1.71,1.9-3.82,3.34-6.31,4.3-2.49.97-5.18,1.45-8.05,1.45Z"/>
    <path class="st0" d="M547.59,445.6c-2.94,0-5.67-.49-8.19-1.48-2.51-.99-4.69-2.38-6.54-4.19-1.85-1.8-3.28-3.91-4.3-6.31-1.03-2.4-1.54-5.04-1.54-7.9s.51-5.5,1.54-7.91c1.02-2.4,2.46-4.51,4.3-6.31,1.84-1.81,4.01-3.2,6.51-4.19,2.49-.99,5.23-1.48,8.21-1.48s5.66.49,8.16,1.48c2.49.99,4.67,2.38,6.51,4.16,1.84,1.79,3.28,3.89,4.3,6.32,1.02,2.42,1.54,5.07,1.54,7.94s-.51,5.51-1.54,7.93c-1.03,2.42-2.46,4.53-4.3,6.32-1.84,1.79-4.02,3.18-6.51,4.16-2.49.99-5.22,1.48-8.16,1.48ZM547.59,441.91c2.35,0,4.52-.4,6.51-1.2,1.99-.8,3.73-1.94,5.2-3.41,1.47-1.47,2.62-3.18,3.43-5.14s1.23-4.11,1.23-6.45-.41-4.5-1.23-6.46-1.96-3.67-3.43-5.14c-1.47-1.47-3.2-2.6-5.2-3.41-1.99-.8-4.16-1.2-6.51-1.2s-4.53.4-6.54,1.2c-2.01.8-3.76,1.94-5.25,3.41-1.49,1.47-2.64,3.18-3.46,5.14-.82,1.96-1.23,4.11-1.23,6.46s.41,4.45,1.23,6.42c.82,1.98,1.97,3.7,3.46,5.17,1.49,1.47,3.24,2.61,5.25,3.41,2.01.8,4.19,1.2,6.54,1.2Z"/>
    <path class="st0" d="M580.17,445.27v-39.12h3.41l17.88,30.51h-1.79l17.71-30.51h3.41v39.12h-3.97v-32.91h.95l-16.31,27.94h-1.96l-16.43-27.94h1.06v32.91h-3.97Z"/>
    <path class="st0" d="M636.33,445.27v-39.12h3.41l17.88,30.51h-1.79l17.71-30.51h3.41v39.12h-3.97v-32.91h.95l-16.31,27.94h-1.96l-16.43-27.94h1.06v32.91h-3.97Z"/>
    <path class="st0" d="M703.27,445.6c-2.91,0-5.69-.47-8.36-1.42-2.66-.95-4.72-2.17-6.17-3.66l1.62-3.18c1.38,1.34,3.23,2.47,5.56,3.38,2.33.91,4.78,1.37,7.35,1.37s4.46-.31,6.01-.92c1.55-.61,2.68-1.44,3.41-2.49.73-1.04,1.09-2.2,1.09-3.47,0-1.53-.44-2.76-1.32-3.69-.88-.93-2.02-1.66-3.43-2.21-1.42-.54-2.98-1.01-4.69-1.43-1.71-.41-3.43-.85-5.14-1.31-1.71-.47-3.29-1.09-4.72-1.87-1.43-.78-2.59-1.82-3.46-3.1-.88-1.29-1.32-2.97-1.32-5.06,0-1.93.51-3.72,1.54-5.33,1.02-1.62,2.6-2.92,4.72-3.91,2.12-.99,4.84-1.48,8.16-1.48,2.2,0,4.38.31,6.54.92s4.02,1.46,5.59,2.54l-1.4,3.3c-1.68-1.12-3.46-1.94-5.34-2.46-1.88-.52-3.7-.78-5.45-.78-2.35,0-4.28.32-5.81.95-1.53.63-2.65,1.48-3.38,2.54-.73,1.06-1.09,2.26-1.09,3.61,0,1.53.44,2.76,1.32,3.69.87.93,2.03,1.66,3.46,2.18,1.43.52,3.01.99,4.72,1.4,1.71.41,3.42.86,5.11,1.34,1.69.48,3.26,1.11,4.69,1.87,1.43.77,2.59,1.78,3.47,3.05s1.31,2.92,1.31,4.97c0,1.9-.52,3.66-1.56,5.28-1.04,1.62-2.63,2.93-4.78,3.91-2.15.99-4.89,1.48-8.24,1.48Z"/>
  </g>
  <g>
    <path class="st0" d="M310.34,342.65c0-27.85,21.78-45.21,43.07-45.21,17.73,0,28.82,9.79,32.53,21.02,1.38,4.17-1.79,8.46-6.18,8.46h-54.51l-.33,5.24c0,21.46,13.1,36.69,33.9,36.69,12.12,0,21.46-5.24,28.34-12.94l1.47,1.64c-7.53,11.47-20.47,24.57-39.47,24.57s-38.82-12.94-38.82-39.47ZM370.78,324.63c-2.13-13.43-11.14-24.08-22.44-24.24-13.92-.16-20.97,11.47-22.93,24.24h45.37Z"/>
    <path class="st0" d="M476.77,341.67c0-26.53,21.29-44.23,43.73-44.23,20.31,0,43.57,11.96,43.57,40.78s-24.24,43.9-43.57,43.9c-21.29,0-43.73-12.61-43.73-40.45ZM547.53,350.67c0-20.8-14.25-52.08-35.38-49.95-14.25,1.47-19,14.57-19,28.66,0,19.33,11.47,49.14,33.09,49.14,16.05,0,21.29-13.92,21.29-27.85Z"/>
    <path class="st0" d="M575.39,378.19c5.4-1.8,6.55-6.71,6.55-18.51v-37.67c0-9.66-2.46-11.3-6.55-13.1v-2.29l21.62-9.5,1.64,1.31v19.82c2.46-5.73,6.72-10.81,11.96-14.41,6.06-4.26,12.28-6.39,20.15-6.39,5.57,0,10.48,1.47,10.48,4.91s-3.6,10.65-11.14,10.65c-4.59,0-10.81-1.64-21.29-4.91-4.1,3.44-9.66,10.81-10.16,19v32.59c0,11.8,1.15,16.71,6.55,18.51v2.3h-29.81v-2.3Z"/>
    <path class="st0" d="M694.97,364.42v-17.52c-4.59,19-16.38,35.21-33.41,35.21-12.12,0-22.28-7.7-22.28-21.46,0-16.87,17.2-23.42,37.51-29.15l18.18-5.24c-.33-16.21-9.17-22.44-21.29-22.44-9.17,0-18.18,3.93-26.53,13.92l-1.64-1.47c9.17-11.3,21.78-18.83,36.69-18.83,19.82,0,29.16,10.65,29.16,30.63v31.61c0,11.8,1.15,16.71,6.55,18.51v2.3h-6.87c-8.87,0-16.06-7.19-16.06-16.06ZM669.74,370.16c16.05,0,25.06-22.6,25.23-37.34v-4.26l-17.53,5.08c-7.7,2.13-22.93,7.7-22.93,21.29,0,10.81,7.7,15.23,15.23,15.23Z"/>
    <path class="st0" d="M459.57,359.68v-110.39l-1.64-1.31-21.62,9.5v2.3c4.1,1.8,6.55,3.44,6.55,13.1v86.81c0,.18,0,.32,0,.49v4.45c0,8.76,7.1,15.87,15.87,15.87h7.4v-2.3c-5.4-1.8-6.55-6.71-6.55-18.51Z"/>
    <path class="st0" d="M419.28,359.68v-110.39l-1.64-1.31-21.62,9.5v2.3c4.1,1.8,6.55,3.44,6.55,13.1v86.81c0,.18,0,.32,0,.49v4.45c0,8.76,7.1,15.87,15.87,15.87h7.4v-2.3c-5.4-1.8-6.55-6.71-6.55-18.51Z"/>
    <path class="st0" d="M295.42,359.68v-35.21c0-19.16-10.15-27.03-25.22-27.03-12.77,0-24.57,7.37-33.57,14.74v-62.9l-1.64-1.31-21.62,9.5v2.3c4.1,1.8,6.55,3.44,6.55,13.1v86.81c0,11.8-1.15,16.71-6.55,18.51v2.3h29.81v-2.3c-5.4-1.8-6.55-6.71-6.55-18.51v-44.71c8.84-7.21,15.89-10.97,23.58-10.97,12.12,0,18.51,8.68,18.51,23.42l-.02,37.2c0,8.76,7.1,15.87,15.87,15.87h7.4v-2.3c-5.4-1.8-6.55-6.71-6.55-18.51Z"/>
    <path class="st0" d="M167.99,313.82c-13.1-5.24-29.64-11.14-29.64-25.71,0-12.94,10.32-20.64,23.42-20.64,11.99,0,22.86,5.23,30.34,15.06,2.04,2.68,7.55,1.61,7.55-3.72,0-5.59-3.18-8.81-7.63-10.33-7.06-2.4-15.2-3.8-24.04-3.8-25.71,0-42.09,12.61-42.09,32.92,0,19,14.09,24.57,30.96,31.61,13.1,5.24,34.23,12.78,34.23,28.83,0,13.43-10.48,20.64-21.78,20.64-21.78,0-36.36-14.41-43.24-33.08l-2.13.33.65,24.57c8.36,6.22,23.59,11.63,40.46,11.63,18.84,0,39.47-12.45,39.47-34.89,0-19.65-19.82-27.02-36.53-33.41Z"/>
  </g>
  <g>
    <circle class="st0" cx="689.86" cy="166.65" r="3.19"/>
    <path class="st0" d="M714.05,156.65l-12.94-5.34c-5.65-2.33-11.78-2.15-17.27.5-5.53,2.67-9.68,7.62-11.39,13.58-8.66,30.19-32.08,60.97-64.25,84.42l-.12.09c-1.43,1.04-2.86,2.08-4.33,3.09-16.25,11.23-33.36,19.81-50.94,25.61,4-8.16,10.02-16.18,17.62-23.46.22.02.43.03.65.05-2.07-.18-4.13-.39-6.17-.66-8.14,8.36-14.35,17.55-18.06,26.82l-1.67,4.17,4.3-1.3c1.52-.46,2.88-.91,4.17-1.35,18.15-5.93,35.82-14.75,52.57-26.33,1.4-.97,2.77-1.96,4.13-2.95,17.31-2.89,33.3-8.55,47.29-16.34-9.05,15.7-11,31.88-5.17,45.48l1.35,2.94,2.08-1.25c35.63-21.4,53.41-55.75,42.3-81.68,0,0,0,0,0,0l-.49-1.07c9.06-13.09,14.78-27.84,16.2-43.45l.15-1.59ZM694.86,206.09c8.64,23.21-7.48,53.48-39.07,73.33-5.25-14.11-1.51-31.23,10.4-47.35,10.95-7.24,20.41-15.87,27.96-25.53.23-.15.47-.3.7-.45ZM691.09,203.39l-.39.36c-7.37,9.43-16.5,17.77-27.12,24.79h-.01c-13.16,8.67-28.5,15.3-45.41,19.13,29.12-23.21,50.22-52.36,58.46-81.08,1.37-4.78,4.69-8.74,9.11-10.88,2.33-1.13,4.8-1.69,7.29-1.69,2.17,0,4.35.43,6.44,1.29l9.98,4.12c-1.77,15.94-8.26,30.9-18.34,43.97Z"/>
    <path class="st0" d="M617.7,192.7c-3.61-3.37-7.19-5.21-10.2-5.21-.67,0-1.32.09-1.94.27-4.51,1.32-6.65,7.17-7.52,10.54l-1.27,4.9-4.65-2.02c-3.04-1.32-5.91-2.02-8.3-2.02-2,0-3.67.48-4.96,1.43-2.84,2.09-4.05,6.63-3.43,12.66,8.29,1.79,17.74,5.81,26.92,11.93,2.96,1.97,5.71,4.06,8.27,6.22-.14-3.23-.13-6.57.1-10,.71-11.07,3.29-21.06,6.98-28.71Z"/>
  </g>
  <g>
    <path class="st0" d="M629,216.27c4.42-10.08,10.1-18.63,16.01-24.79-2.76-5.85-6.3-9.31-9.9-9.54-.14,0-.27-.01-.41-.01-8.08,0-18.14,16.33-19.65,39.76-.2,3.11-.23,6.31-.09,9.53l.43,9.83-7.54-6.33c-2.57-2.16-5.23-4.15-7.89-5.93-11.54-7.69-24.09-12.29-33.56-12.29-2.95,0-8.25.51-10.51,3.9-2.06,3.08-1.33,8.2,1.91,14.18,2.57-.32,5.31-.48,8.17-.48,6.68,0,14.08.88,21.7,2.74,9.48,2.31,17.92,5.81,24.63,9.89,3.46-2.65,6.81-5.39,10.05-8.2,1.1-6.96,3.28-14.56,6.66-22.25Z"/>
    <path class="st0" d="M536.8,248.12c.05-.4.06-.8.16-1.2,1.39-5.71,7.52-9.69,16.34-11.58-3.34-6.76-3.94-12.96-1.01-17.34,2.62-3.93,7.67-5.83,14.11-5.83,1.48,0,3.06.13,4.68.33-.47-6.86,1.17-12.42,5.23-15.4,2.1-1.54,4.65-2.27,7.52-2.27,3.05,0,6.45.82,10.02,2.37,1.85-7.12,5.43-12.13,10.5-13.61,1.03-.3,2.08-.45,3.16-.45,3.99,0,8.23,2.05,12.31,5.64,4.19-6.96,9.41-11.2,14.89-11.2.23,0,.46,0,.69.02,5.11.33,9.55,4.35,12.87,10.73,5.27-4.65,10.59-7.3,15.23-7.3,1.03,0,2,.18,2.96.44h0c.66-1.46,1.3-2.91,1.9-4.37-21.39-7.4-49.4-5.26-75.47,5.92-31.2,13.38-54.28,36.98-60.23,61.61l-.46,1.89,1.83.66c.91.33,1.85.62,2.78.93h0Z"/>
    <path class="st0" d="M586.63,241.05c-7.02-1.71-14.16-2.61-20.67-2.61-13.45,0-23.42,3.82-24.8,9.51-.12.49-.17,1-.17,1.52,13.83,4.16,28.63,6.32,43.54,6.32,3,0,6-.09,9-.26,2.41-.14,4.86-.35,7.34-.62.96-.64,1.92-1.25,2.87-1.91,1.47-1.01,2.9-2.05,4.33-3.09l.12-.09c.12-.09.24-.18.36-.27-6.24-3.56-13.75-6.5-21.92-8.49Z"/>
    <path class="st0" d="M664.53,185.48c-.34-.05-.68-.1-1.04-.1-7.86,0-21.23,11.44-30.53,32.63-2.32,5.3-4.11,10.62-5.32,15.75h0c15.85-14.78,28.49-31.35,36.89-48.28h0Z"/>
  </g>
</svg>