<?xml version="1.0" encoding="UTF-8"?>
<svg id="Layer_1" xmlns="http://www.w3.org/2000/svg" version="1.1" viewBox="0 0 400 400">
  <!-- Generator: Adobe Illustrator 29.2.0, SVG Export Plug-In . SVG Version: 2.1.0 Build 108)  -->
  <defs>
    <style>
      .st0 {
        fill: #fbd0d1;
      }

      .st1 {
        fill: #125671;
      }

      .st2 {
        fill: #f4858b;
      }
    </style>
  </defs>
  <circle class="st0" cx="200" cy="200" r="200"/>
  <g>
    <path class="st1" d="M282.94,217.38c1.99-11.19,1.05-22.15-3.23-32.14,0,0,0,0,0,0l-.64-1.38c11.69-16.89,19.07-35.93,20.91-56.06l.19-2.05-16.7-6.9c-7.29-3-15.2-2.78-22.28.64-7.13,3.44-12.49,9.83-14.7,17.53-11.18,38.96-41.4,78.67-82.9,108.93l-.16.12c-1.84,1.34-3.69,2.68-5.59,3.99-20.96,14.49-43.05,25.56-65.72,33.05,5.17-10.52,12.92-20.87,22.73-30.27.28.03.56.04.84.06-2.67-.23-5.32-.51-7.97-.85-10.51,10.78-18.52,22.65-23.3,34.61l-2.15,5.39,5.55-1.67c1.96-.59,3.71-1.17,5.38-1.74,3.71-1.21,7.41-2.53,11.09-3.93l.86,32.38c20.42,15.21,57.64,28.41,98.87,28.41,46.04,0,96.46-30.42,96.46-85.26,0-18.03-6.84-31.82-17.53-42.85ZM225,284.15c-6.78-18.2-1.94-40.3,13.42-61.1,14.13-9.34,26.33-20.47,36.08-32.94.3-.19.6-.39.91-.58,11.15,29.95-9.65,69-50.41,94.62ZM251.87,138.56c1.77-6.17,6.05-11.28,11.75-14.04,3-1.45,6.2-2.18,9.41-2.18,2.8,0,5.61.56,8.31,1.67l12.88,5.32c-2.29,20.56-10.66,39.88-23.66,56.73l-.5.46c-9.51,12.17-21.28,22.93-35,31.98l-.02.02c-16.97,11.16-36.78,19.72-58.59,24.66,37.57-29.94,64.8-67.56,75.43-104.62ZM214.42,337.09c-44.15,0-76.17-24.23-95.42-58.53,14.38-6.54,28.43-14.52,42.02-23.91,1.81-1.25,3.57-2.53,5.33-3.81,22.34-3.73,42.97-11.03,61.02-21.08-11.68,20.25-14.19,41.14-6.67,58.69l1.75,3.79,2.68-1.61c13.78-8.28,25.47-18.06,34.73-28.6,4.87,7.17,7.79,15.31,7.79,24.63,0,32.82-25.62,50.43-53.23,50.43Z"/>
    <circle class="st1" cx="268.96" cy="138.65" r="4.11"/>
    <path class="st1" d="M156.05,214.18c3.82,2.55,7.37,5.25,10.68,8.02-.18-4.17-.16-8.48.12-12.9.92-14.28,4.25-27.17,9-37.04-4.66-4.35-9.28-6.72-13.17-6.72-.86,0-1.7.12-2.5.35-5.82,1.7-8.58,9.25-9.71,13.6l-1.64,6.33-5.99-2.6c-3.92-1.7-7.62-2.6-10.7-2.6-2.58,0-4.73.62-6.4,1.84-3.67,2.69-5.22,8.55-4.43,16.33,10.7,2.31,22.88,7.5,34.73,15.4Z"/>
  </g>
  <path class="st2" d="M190.43,202.67c5.71-13.01,13.03-24.04,20.66-31.99-3.56-7.55-8.13-12.01-12.77-12.31-.18-.01-.35-.02-.53-.02-10.43,0-23.41,21.07-25.36,51.3-.26,4.01-.3,8.14-.12,12.3l.55,12.69-9.73-8.16c-3.32-2.78-6.74-5.36-10.18-7.65-14.89-9.93-31.08-15.86-43.3-15.86-3.81,0-10.64.65-13.56,5.03-2.65,3.98-1.72,10.59,2.46,18.3,3.32-.41,6.85-.62,10.55-.62,8.63,0,18.16,1.14,27.99,3.53,12.23,2.98,23.12,7.49,31.78,12.76,4.47-3.42,8.79-6.95,12.97-10.58,1.42-8.98,4.24-18.79,8.59-28.72Z"/>
  <path class="st2" d="M71.46,243.76c.06-.52.08-1.04.2-1.55,1.79-7.36,9.7-12.51,21.08-14.94-4.31-8.72-5.08-16.72-1.31-22.38,3.38-5.08,9.9-7.52,18.21-7.52,1.92,0,3.95.17,6.04.43-.61-8.86,1.51-16.02,6.75-19.87,2.7-1.99,6.01-2.93,9.71-2.93,3.94,0,8.33,1.06,12.93,3.06,2.38-9.19,7-15.65,13.55-17.56,1.33-.39,2.69-.58,4.07-.58,5.15,0,10.62,2.64,15.89,7.28,5.41-8.99,12.15-14.45,19.21-14.45.3,0,.59,0,.89.03,6.6.43,12.32,5.62,16.6,13.85,6.8-6,13.66-9.42,19.66-9.42,1.32,0,2.59.23,3.82.57h0c.85-1.88,1.68-3.76,2.46-5.64-27.59-9.55-63.74-6.79-97.38,7.64-40.26,17.26-70.04,47.72-77.71,79.49l-.59,2.44,2.36.85c1.18.42,2.39.79,3.58,1.19h0Z"/>
  <path class="st1" d="M269.96,67.78c-17.26-5.88-37.15-9.28-58.74-9.28-62.84,0-102.86,30.81-102.86,80.45,0,14.45,3.35,25.71,9.19,34.9,8.1-5.3,16.9-10.05,26.28-14.07,5.41-2.32,10.89-4.34,16.39-6.05-12.64-9.38-21.44-21.37-21.44-37.99,0-31.62,25.21-50.44,57.24-50.44,29.3,0,55.87,12.77,74.14,36.8,4.98,6.54,18.46,3.95,18.46-9.08,0-13.67-7.78-21.54-18.65-25.24Z"/>
  <path class="st2" d="M135.77,234.64c-9.05-2.2-18.28-3.37-26.67-3.37-17.35,0-30.21,4.93-32,12.27-.15.63-.22,1.29-.22,1.97,17.85,5.37,36.94,8.15,56.18,8.15,3.87,0,7.74-.11,11.61-.34,3.11-.18,6.28-.46,9.47-.8,1.23-.82,2.48-1.61,3.7-2.46,1.9-1.31,3.74-2.65,5.59-3.99l.16-.12c.16-.11.31-.23.46-.35-8.05-4.59-17.75-8.39-28.29-10.95Z"/>
  <path class="st2" d="M236.28,162.94c-.44-.06-.87-.13-1.35-.13-10.14,0-27.39,14.76-39.39,42.11-3,6.83-5.3,13.7-6.86,20.32h0c20.45-19.07,36.76-40.45,47.6-62.3h0Z"/>
</svg>