<?xml version="1.0" encoding="UTF-8"?><svg id="a" xmlns="http://www.w3.org/2000/svg" viewBox="0 0 399.4 174.91"><polygon points="0 1.69 5.62 1.69 5.62 22.08 32.02 22.08 32.02 1.69 37.64 1.69 37.64 49.43 32.02 49.43 32.02 27.08 5.62 27.08 5.62 49.43 0 49.43 0 1.69" style="fill:#000;"/><path d="M89.77,25.59c0-12.39-7.92-20.58-20.04-20.58s-20.04,8.19-20.04,20.58,7.93,20.51,20.04,20.51,20.04-8.19,20.04-20.51m-45.7,0C44.07,10.16,54.22,0,69.73,0s25.73,10.16,25.73,25.59-10.16,25.52-25.73,25.52-25.66-10.15-25.66-25.52" style="fill:#000;"/><polygon points="101.88 1.69 107.5 1.69 107.5 44.42 131.94 44.42 131.94 49.43 101.88 49.43 101.88 1.69" style="fill:#000;"/><path d="M177.03,25.59c0-12.39-7.92-20.58-20.04-20.58s-20.04,8.19-20.04,20.58,7.92,20.51,20.04,20.51,20.04-8.19,20.04-20.51m-45.7,0C131.33,10.16,141.49,0,156.99,0s25.73,10.16,25.73,25.59-10.16,25.52-25.73,25.52-25.66-10.15-25.66-25.52" style="fill:#000;"/><path d="M187.45,25.59C187.45,9.96,196.66,0,211.28,0,221.64,0,229.7,6.5,231.86,16.73l-5.35,1.29c-1.42-7.98-7.38-13-15.23-13-11.17,0-18.22,7.99-18.22,20.58,.07,12.53,7.72,20.51,19.7,20.51,9.55,0,16.52-6.09,17.94-15.64l5.42,1.36c-1.83,11.78-10.9,19.29-23.36,19.29-15.5,0-25.32-9.95-25.32-25.52" style="fill:#000;"/><path d="M280.11,31.56V1.69h5.62V31.56c0,7.99,5.35,14.55,13.74,14.55s13.68-5.95,13.68-14.55V1.69h5.69V31.56c0,11.57-7.92,19.56-19.37,19.56s-19.36-7.99-19.36-19.56" style="fill:#000;"/><path d="M323.58,34.39l5.55-1.01c.48,7.45,6.77,12.72,15.1,12.72,7.52,0,12.12-3.99,12.12-9.2,0-4.2-2.98-6.71-9.95-8.34l-7.71-1.76c-8.46-1.96-12.46-5.82-12.46-12.18,0-8.6,6.43-14.63,16.18-14.63,8.74,0,15.37,5.49,16.72,13.48l-5.35,1.35c-.68-5.82-5.21-9.81-11.3-9.81-6.5,0-10.63,3.72-10.63,8.66,0,4.06,2.57,6.36,8.6,7.72l7.72,1.76c9.21,2.03,13.81,6.37,13.81,12.86,0,8.74-6.97,15.1-17.74,15.1s-19.56-6.9-20.64-16.72" style="fill:#000;"/><polygon points="377.8 6.71 361.83 6.71 361.83 1.69 399.4 1.69 399.4 6.71 383.42 6.71 383.42 49.43 377.8 49.43 377.8 6.71" style="fill:#000;"/><path d="M327.84,86.13c6.64,0,11.31-3.59,11.31-8.74s-4.67-8.8-11.31-8.8h-15.77v17.54h15.77Zm6.23,20.99l-2.91-10.02c-1.01-3.52-3.79-5.96-7.04-5.96h-12.05v20.18h-5.62V63.59h21.39c9.89,0,16.92,5.69,16.92,13.68,0,6.64-4.94,11.71-12.93,12.8v.07c2.57,1.28,4.2,3.59,5.01,6.42l2.38,8.6c.4,1.62,1.35,2.77,2.84,2.77s3.11-1.21,4.2-3.11l2.84,3.32c-1.96,2.71-4.8,4.54-8.12,4.54-3.79,0-5.96-2.31-6.91-5.56" style="fill:#000;"/><polygon points="353.16 63.59 385.79 63.59 385.79 68.6 358.64 68.6 358.64 84.24 383.08 84.24 383.08 89.11 358.64 89.11 358.64 106.31 386.47 106.31 386.47 111.32 353.16 111.32 353.16 63.59" style="fill:#000;"/><polygon points="280.11 63.59 280.11 68.6 280.11 111.32 285.73 111.32 285.73 68.6 301.72 68.6 301.72 63.59 280.11 63.59" style="fill:#000;"/><polygon points="104.43 125.48 111.94 125.48 136.38 165.97 136.52 165.97 136.52 125.48 142.21 125.48 142.21 173.21 134.69 173.21 110.18 132.8 110.04 132.8 110.04 173.21 104.43 173.21 104.43 125.48" style="fill:#000;"/><path d="M194.33,149.39c0-12.39-7.92-20.59-20.04-20.59s-20.04,8.19-20.04,20.59,7.92,20.51,20.04,20.51,20.04-8.19,20.04-20.51m-45.7,0c0-15.44,10.16-25.6,25.66-25.6s25.73,10.16,25.73,25.6-10.16,25.52-25.73,25.52-25.66-10.16-25.66-25.52" style="fill:#000;"/><path d="M227.84,148.03c6.64,0,11.31-3.59,11.31-8.74s-4.67-8.8-11.31-8.8h-15.77v17.54h15.77Zm6.23,20.99l-2.91-10.02c-1.01-3.52-3.79-5.96-7.04-5.96h-12.06v20.18h-5.62v-47.73h21.39c9.89,0,16.92,5.69,16.92,13.68,0,6.64-4.94,11.71-12.93,12.8v.07c2.57,1.28,4.2,3.59,5.01,6.43l2.38,8.6c.41,1.62,1.36,2.77,2.84,2.77s3.11-1.22,4.19-3.11l2.85,3.32c-1.96,2.71-4.81,4.54-8.12,4.54-3.8,0-5.96-2.31-6.91-5.55" style="fill:#000;"/><polygon points="269.06 125.48 269.06 130.49 269.06 173.21 263.45 173.21 263.45 130.49 247.46 130.49 247.46 125.48 269.06 125.48" style="fill:#000;"/><path d="M138.14,87.49c0-15.64,9.21-25.59,23.83-25.59,10.36,0,18.41,6.5,20.58,16.72l-5.35,1.29c-1.42-7.99-7.38-13-15.23-13-11.17,0-18.21,7.99-18.21,20.58,.07,12.52,7.72,20.52,19.7,20.52,9.55,0,16.52-6.09,17.94-15.64l5.41,1.36c-1.82,11.78-10.9,19.29-23.36,19.29-15.5,0-25.32-9.95-25.32-25.52" style="fill:#000;"/><polygon points="192.22 63.59 224.86 63.59 224.86 68.6 197.71 68.6 197.71 84.24 222.15 84.24 222.15 89.11 197.71 89.11 197.71 106.31 225.53 106.31 225.53 111.32 192.22 111.32 192.22 63.59" style="fill:#000;"/><polygon points="260.73 1.69 234.2 49.43 240.63 49.43 263.38 7.3 263.38 104.07 263.24 104.07 238.8 63.59 231.29 63.59 231.29 111.32 236.9 111.32 236.9 70.9 237.04 70.9 261.55 111.32 269.06 111.32 269.06 63.59 269.06 44.42 269.06 27.56 269.06 22.82 269.06 6.77 269.06 5.09 269.06 1.69 260.73 1.69" style="fill:#000;"/><polygon points="280.11 111.32 285.73 111.32 285.73 145.86 312.14 145.86 312.14 125.48 317.76 125.48 317.76 173.22 312.14 173.22 312.14 150.88 285.73 150.88 285.73 173.22 280.11 173.22 280.11 111.32" style="fill:#000;"/></svg>